<?xml version="1.0" standalone="no"?>
<svg xmlns="http://www.w3.org/2000/svg" viewBox="0 0 84 73" width="84" height="73"><g fill="#f1333f" color="#f1333f" transform="translate(19.796 0) scale(0.0007334) "><svg width="60000.0" height="60000.0" x="0.0" y="0.0" viewBox="0 0 60000 60000"><defs><style type="text/css">
   
    .fil0 {fill:currentColor;fill-rule:nonzero}
   
  </style></defs><g><path class="fil0" d="M20543.69 45479.41c216.6,-38.83 423.67,105.28 462.5,321.88 38.83,216.6 -105.28,423.67 -321.88,462.5 -414.61,75.12 -817.23,159 -1207.83,250.88 179.34,148.22 362.88,254.69 558.36,322.58 277.97,96.54 589.62,118.55 956.81,75.22 136.99,-16.18 261.17,81.76 277.35,218.75 16.18,136.99 -81.76,261.17 -218.75,277.35 -440.39,51.96 -823.53,22.33 -1177.51,-100.62 -353.63,-122.82 -668.79,-335.53 -973.07,-649.57 -995.67,262.37 -1907.17,578.15 -2731.15,935.52 470.6,427.8 1112.93,841.44 1844.71,1156.35 809.69,348.44 1723.09,572.93 2626.73,557.99 137.52,-2.15 250.78,107.59 252.93,245.11 2.15,137.52 -107.59,250.78 -245.11,252.93 -981.3,16.23 -1964.96,-224.02 -2831.81,-597.05 -861.82,-370.86 -1613.94,-876.07 -2137.41,-1393.09 -859.48,407.39 -1614.27,861.31 -2259.88,1346.49 228.75,965.46 709.26,1710.78 1307.6,2235.92 761.18,668.07 1711.75,983.58 2573.62,943.88 24.77,-1.14 46.56,-7.73 64.14,-18.99 17.8,-11.39 33.15,-28.76 44.8,-51.28 12.32,-23.81 17.97,-47.03 17.01,-68.14 -0.89,-19.48 -8.45,-40.94 -22.58,-63.02l-646.11 -1009.26c-19.6,-28.98 -35.7,-61.02 -47.47,-95.75 -129.23,-382.18 -174.3,-728.11 6.93,-966.08 204.82,-268.98 568.83,-315.19 1191.04,6.57 717.26,370.92 1290.44,538.51 1888,520.14 613.33,-18.86 1282.3,-230.75 2176.14,-617.57 24.82,-10.74 44.14,-25.99 56.86,-44.18 12.26,-17.53 19.7,-40.72 21.28,-68.04 1.61,-27.85 -3.37,-52.51 -14.02,-72.27 -10.38,-19.24 -27.88,-36.55 -51.6,-50.25l-711.12 -410.86c-147.2,-85.05 -263.8,-203.14 -344.13,-344.26 -79.64,-139.91 -121.25,-300.28 -119.22,-471.15 2.03,-170.82 47.46,-330.07 130.36,-467.89 83.61,-139 203.44,-254.41 353.51,-336.37 573.78,-313.32 1102.79,-767.91 1447.6,-1368.7 255.46,-445.09 410.41,-974.34 407.61,-1590.91 -714.68,-295.12 -1296.69,-481.62 -1813.45,-530.61 -537.09,-50.91 -1020,50.1 -1540.78,337.88 -134.71,74.45 -280.35,113.32 -429.88,116.41 -147.58,3.05 -294.56,-30.23 -434.01,-99.95 -139.43,-69.72 -254.24,-167.36 -340.35,-287.24 -87.05,-121.2 -143.34,-261.51 -164.79,-415.25l-106.3 -761.8c-377.03,468.58 -663.36,969.58 -872.15,1481.92 -244.82,600.73 -383.15,1215.91 -436.3,1812.09 1066.62,-379.6 2245.96,-695.06 3532.77,-928.21zm11000.71 -34568.86c-78.2,-113.26 -49.78,-268.48 63.48,-346.68 113.26,-78.2 268.48,-49.78 346.68,63.48 537.65,779.66 1147.89,1250.7 1766.47,1498.82 739.81,296.75 1496.77,276.95 2156.4,86.72 132.13,-37.75 269.87,38.77 307.62,170.9 37.75,132.13 -38.77,269.87 -170.9,307.62 -755.95,218 -1625.51,239.87 -2478.66,-102.34 -703.58,-282.21 -1392.48,-810.46 -1991.09,-1678.52zm-7973.33 2984.87c-76.58,114.33 -231.37,144.94 -345.7,68.36 -114.33,-76.58 -144.94,-231.37 -68.36,-345.7 696.53,-1036.92 788.39,-2067.61 582.86,-2976.39 -315.29,-1394.15 -1316.08,-2506.13 -1931.06,-2930.58 -113.26,-78.2 -141.68,-233.42 -63.48,-346.68 78.2,-113.26 233.42,-141.68 346.68,-63.48 680.49,469.66 1787.2,1697.09 2134.18,3231.36 232.74,1029.09 129.98,2194.32 -655.12,3363.11zm-12340.21 34848.77c95.46,99.24 92.4,257.08 -6.84,352.54 -99.24,95.46 -257.08,92.4 -352.54,-6.84 -1038.96,-1074.78 -1418.38,-2041.03 -1423.62,-2914.93 -5.26,-875.74 364.78,-1638.25 823.84,-2319.6 77.12,-114.33 232.35,-144.5 346.68,-67.38 114.33,77.12 144.5,232.35 67.38,346.68 -412.12,611.68 -744.37,1287.65 -739.86,2038.34 4.51,752.53 346.93,1600.82 1284.96,2571.19zm35272.96 -11885.75c4.85,137.52 -102.71,252.96 -240.23,257.81 -137.52,4.85 -252.96,-102.71 -257.81,-240.23 -38.3,-981.9 -636.15,-2253.75 -1729.16,-3229.25 -876.98,-782.69 -2072.22,-1369.05 -3552.98,-1454.79 -137.52,-7.54 -242.89,-125.17 -235.35,-262.69 7.54,-137.52 125.17,-242.89 262.69,-235.35 1605.87,92.99 2903.97,730.56 3857.68,1581.73 1196.78,1068.11 1852.19,2481.26 1895.16,3582.77zm-28820.09 6270.08c-120.2,46.73 -240.12,91.49 -358.02,135.49 -915.65,341.74 -1685.3,628.99 -1835.88,1922.52 -19.09,164.17 -77.39,313.52 -169.26,440.26 -91.74,126.56 -215.34,228.23 -365.15,297.25 -150.27,69.22 -307.69,97.25 -462.74,84.85 -155.19,-12.41 -306.28,-65.16 -443.77,-157.49 -336.31,-225.8 -515.22,-376.73 -626.85,-652.11 -98.51,-242.99 -105.7,-519.19 -103.66,-1010.55 0.35,-85.09 -13.24,-138.45 -35.73,-166.59 -11.35,-14.2 -33.89,-23.99 -62.8,-29.71 -54.51,-10.78 -120.48,-4.86 -189.06,14.71 -125.14,35.72 -242.96,111.48 -310.76,212.13 -398.03,590.78 -718.94,1240.79 -714.66,1953.97 3.98,663.68 289.01,1410.51 1053.27,2263.79 945.02,-690.18 2095.3,-1316.41 3438.99,-1838.46 39.46,-717.39 190.9,-1464.81 486.67,-2190.55 178.33,-437.57 409.12,-867.79 699.41,-1279.51zm9109.54 -5119.65c-172.81,-368.68 -335.31,-738.85 -487.54,-1110.11 -2459.03,-5996.97 -2579.94,-12955.83 -506.12,-19157.03 79.22,-236.88 162,-472.53 247.65,-707.09 -1071.75,-846.13 -2564.34,-1578.89 -4574.08,-2283.89 -176.8,1085.08 -644.02,1967.46 -1263.13,2630.97 -836.11,896.09 -1951.41,1390.95 -3007.32,1447.63 -167.67,9 -327.36,-25.01 -469.37,-97.14 -143.06,-72.64 -265.61,-182.34 -357.98,-324.17 -91.96,-141.2 -142.57,-297.36 -151.2,-457.65 -8.57,-159.16 24.86,-318.97 100.83,-468.61l531.43 -1046.8c38.6,-110.48 93.79,-155.86 73.99,-177.1 -50.5,-54.16 13.77,132.5 -166.38,249.74 -794.45,517.01 -1461.7,780.93 -2205.95,832.3 -725.29,50.07 -1498.91,-108.09 -2523.06,-434.74 -170.79,-54.46 -315.65,-150.92 -425.39,-278.65 -109.39,-127.31 -182.64,-284.4 -210.6,-460.54 -28.04,-176.53 -7.1,-348.68 57.41,-503.48 64.67,-155.21 172.34,-291.54 317.54,-396.01l666.72 -479.58c21.98,-15.81 37.36,-33.59 45.52,-51.98 8.09,-18.22 10.84,-42.1 7.69,-70.29 -2.8,-25.05 -11.07,-46.77 -23.84,-63.88 -13.41,-17.96 -31.85,-32.37 -54.33,-41.87 -727.46,-307.7 -1421.71,-795.67 -1917.48,-1489.08 -418.38,-585.16 -693.17,-1312.56 -725.2,-2195.67 -15.08,-154.21 60.86,-309.76 205.27,-389.06 851.75,-469.39 1545.95,-783.18 2204.74,-912.73 692.86,-136.27 1329.53,-69.94 2032.78,231.67 22.27,9.55 43.78,13.51 63.54,11.95 19.69,-1.55 39.97,-8.66 59.84,-21.21 20.93,-13.22 36.07,-27.92 44.96,-43.33 9.4,-16.31 14.81,-36.85 15.74,-60.83l32.66 -837.66c5.87,-150.86 44.08,-290.37 112.11,-413.99 68.29,-124.1 165.35,-230.96 288.62,-315.93 123.33,-85 258.01,-137.77 398.84,-157.51 139.86,-19.6 283.05,-5.98 424.37,41.59 256.84,86.45 521.89,156.26 777.09,223.48 1202.46,316.7 2213.17,582.93 2596.3,2332.69 5.32,24.31 14.99,44.35 28.16,59.16 13.16,14.8 32.09,26.77 55.94,34.99 26.13,9.01 49.13,11.71 67.83,8.32 17.95,-3.25 37.84,-13.55 58.53,-30.66 184.5,-152.57 276.95,-238.6 301.08,-320.82 33.7,-114.84 15.67,-324.66 -24.38,-709.11 -29.15,-279.77 28.68,-507.06 143.67,-684.6 120.14,-185.49 295.42,-304.9 497.19,-366.24 176.1,-53.53 371.19,-60.13 561.32,-25.85 302.05,54.47 604.99,215.11 804.61,455.71 540.48,651.46 998.3,1398.27 1083.86,2309.12 74.78,796.05 -140.51,1692.97 -844.12,2720.2 1959.64,691.61 3458.31,1415.54 4579.13,2247.39 1188.13,-2972.4 2900.09,-5730.85 5118.58,-8074.49 -630,-637.97 -959.98,-1319.86 -1067.96,-1993.67 -147.74,-921.91 123.79,-1811.71 612.9,-2546.4 83.81,-125.91 194.64,-223 323.7,-286.92 128.49,-63.63 272.04,-92.83 421.92,-83.29 150.57,9.59 289.42,56.69 408.46,135.91 119.85,79.79 217.45,190.17 284.63,325.75l297.68 600.77c62.66,-689.93 219.75,-1214.57 529.02,-1694.9 328.19,-509.71 815.53,-944.93 1536.81,-1460.99 129.32,-92.55 275.76,-144.47 426.69,-154.86 150.03,-10.35 302.09,21.2 443.58,95.5 140.9,73.99 253.19,181.55 330.33,311.73 76.44,129.02 116.48,278.75 113.7,438.38l-11.66 670.32c-0.13,7.51 1.29,13.92 4.03,18.81 2.46,4.39 6.96,8.6 13.26,12.29 6.99,4.09 12.79,6.14 17.03,6.14 4.15,0 9.96,-2.08 17.05,-6.23 566.63,-331.73 1237.51,-551.7 1947.58,-537.3 600.37,12.18 1223.22,190.51 1827.8,607.55 132.45,79.97 211.72,233.54 189.18,396.51 -109.42,791.85 -244.78,1405.23 -486.16,1909.01 -256.38,535.12 -619.69,929.86 -1173.25,1250.23 -7.12,4.12 -11.6,7.63 -13.31,10.35 -1.26,2.01 -2.25,6.52 -2.86,13.4l1512.8 485.24c181.01,58.05 296.31,180.81 365.4,332.79 59.71,131.31 76.43,282.58 71.54,413.69 -5.03,134.62 -39.17,259.57 -100.13,370.71 -60.87,110.99 -147.68,206.73 -258.1,283.11 -606.25,419.33 -1452.07,876.26 -2357.81,1061.41 -701.13,143.33 -1436.34,125.69 -2128.91,-188.12 -7.26,-3.29 -13.79,-4.69 -19.18,-4.23 -3.59,0.3 -8.35,2.41 -13.99,6.25 -6.27,4.27 -10.51,8.62 -12.57,12.76l-0.57 -0.29c-1.76,4.36 -2.5,10.61 -2.11,18.5 8.97,179.32 17.99,271.84 48.5,312.45 50.12,66.72 191.57,154.05 455.12,311.03l-0.41 0.69c214.78,128.22 345.61,289.3 410.33,463.88l-0.52 0.19 0.52 1.37c68.68,185.24 60.42,374.94 -3.65,552.75 -55.52,154.1 -153.32,295.51 -276.61,410.69 -193.74,181 -463.32,307.87 -736.6,321.96 -789.57,40.74 -1654.43,-163.07 -2388.45,-780.37 -460.5,-387.26 -864.87,-934 -1158.61,-1680.68 -2116.51,2288.62 -3744.25,4973.99 -4866.71,7861.77 508.94,462.57 918.33,959.24 1239.88,1501.14 1524.72,2569.53 1030.01,6026.4 -194.87,11556.49 153.6,-183.43 314.74,-357.14 482.52,-520.82 90.19,-187.48 376.77,-624.07 784.34,-1245.02 978.59,-1490.9 2674.86,-4075.21 3841.91,-6497.91 662.63,-1375.56 1031.66,-2830.2 1268.99,-3765.69 153.91,-606.72 258.83,-1020.23 415.56,-1183.26 204.39,-212.64 411.69,-225.23 629.13,-16.17 3573.13,3434.56 -616.72,8357.28 -2612.11,10701.69l-89.35 105.01c894.6,-44.67 1782.67,113.83 2592.28,490.88 1632.85,760.47 2940.24,2397.59 3324.35,5031.74 116.32,-9.8 231.13,-16.87 344.41,-21.29 1972.31,-76.95 3543.39,634.46 4656.47,1630 1117.96,999.9 1774.59,2296.07 1913.78,3374.9 13.66,105.96 22.49,209.34 26.4,309.65 7.78,199.78 -43.89,383.39 -147.97,540.17 -101.35,152.66 -248.01,274.07 -433.12,353.91 -181.46,78.27 -366.26,96.68 -553.19,76.03 -160.88,-17.76 -317.88,-64.8 -473.06,-125.49l-2331.86 -912.1c-138.1,-39.91 -273.79,-40.36 -385.26,-5.83 -64.55,19.99 -117.1,51.21 -150.26,91.93 -27.91,34.28 -44.27,81.33 -43.91,140.72 0.69,112.82 54.26,261.7 180.2,448.47 673.97,999.45 1011.07,1813.14 1060.43,2684.05 48.75,860.18 -188.23,1739.94 -662.19,2883.68l-0.56 -0.23c-79.34,190.74 -212.33,342.52 -384.6,446.66 -158.99,96.1 -351.63,149.77 -564.6,152.94 -201.6,3 -396.47,-40.83 -570.03,-124.5 -176.2,-84.95 -331.07,-211.13 -449.87,-371.44l-636.19 -858.49c-38.6,-52.09 -89.06,-93.91 -147.21,-123.32 -61.6,-31.16 -131.01,-48.76 -203.8,-50.58 -67.03,-1.67 -123.3,9.11 -165.78,30.8 -29.55,15.09 -53.35,37.63 -69.22,66.5 -441.37,802.45 -1164.41,1594.44 -2160.77,2105.22 -815.35,417.98 -1810.29,646.27 -2978.16,535.28l0.03 -0.36c-124.19,-11.84 -240.95,-81.69 -307.84,-198.08 -616.4,-1071.68 -997.31,-1982.64 -1126.36,-2815.76 -135.27,-873.31 1.82,-1650.6 429.38,-2417.02 12.05,-21.61 17.3,-43.98 15.8,-66 -1.99,-29.25 -15.85,-64.11 -41.45,-103.16 -31.41,-47.92 -72.38,-87.61 -120.57,-117.6 -53.43,-33.25 -115.18,-55.89 -182.71,-66.33l-1142.09 -176.55c-169.36,-26.17 -325.68,-82.18 -463.84,-164.94 -142.14,-85.14 -264.36,-197.45 -361.4,-333.74 -131.32,-184.43 -201.87,-406.48 -218.18,-652.98 -31.67,-478.44 150.19,-1070.98 486.7,-1640.46 323.01,-546.62 794.73,-1085.58 1358.6,-1487.1 521.71,-371.49 1124.56,-627.48 1767.71,-670.06 59.78,-3.95 108.47,-17.74 143.82,-40 25.03,-15.76 44.16,-37.18 55.84,-63.27 11.09,-24.78 14.23,-50.3 9.7,-74.99 -6.52,-35.49 -27.61,-75.22 -62.84,-116.99 -228.04,-270.37 -362.94,-409.86 -526.91,-471.29 -193.83,-72.62 -497.73,-87.84 -1050.24,-105.38 -398.21,-12.64 -696.57,-136.08 -905.4,-321.7 -184.68,-164.14 -295.23,-373.51 -340.9,-599.26 -42.86,-211.95 -26.04,-434.5 42,-641.67 100.06,-304.62 311.98,-585.18 608,-756.87 887.37,-514.66 1894.83,-919.19 3095.08,-870.56 967.36,39.19 2045.65,374.62 3263.86,1188.56 -437.38,-1969.11 -1483.54,-3207.4 -2757.72,-3800.82 -701.45,-326.68 -1473.6,-461.06 -2251.81,-416.83 -237.15,13.48 -474.86,43.47 -711.37,89.55 -821.72,1255.28 -1637.71,2606.76 -2262.12,3980.57 -622.72,1370.09 -1057.13,2763.53 -1117.91,4105.9 -41.11,908.21 -22.99,1828.07 66.2,2719.87 81.57,815.52 223.65,1609.92 435.54,2352.73 337.12,730.26 689.26,1518.69 1037.59,2395.09 400.25,727.4 676.36,1579.32 825.29,2541.78 39.51,255.31 69.45,505.15 89.73,749.23 34.63,416.56 33.43,828.18 -0.72,1233.82 3085.85,-1110.67 6180.53,-1338.91 9321.08,-864.55 3236.07,488.8 6516.72,1724.43 9884.18,3508.39 195.02,102.69 269.88,344.05 167.19,539.07 -85.58,162.54 -267.49,241.58 -438.61,203.96 -3528.76,-670.28 -6176.81,-1142.54 -8670.35,-1190.9 -2484.23,-48.2 -4841.77,323.51 -7813.45,1338.94 -208.83,70.76 -435.5,-41.17 -506.26,-250 -70.76,-208.83 41.17,-435.5 250,-506.26 3063.07,-1046.66 5502.39,-1429.61 8082.21,-1379.56 1832.31,35.54 3722.01,289.13 5950.99,677.81 -2381.06,-1059.77 -4717.63,-1802.36 -7024.66,-2150.83 -3123.02,-471.71 -6196.1,-220.23 -9258.1,946.7 -24.28,9.25 -48.91,15.94 -73.59,20.26 -40.83,198.42 -89.36,395.15 -145.31,590.05 -709.08,2470.31 -2605.31,4639.66 -4949.27,6239.33 -2328.52,1589.15 -5108.21,2622.21 -7602.81,2829.6 -1146.12,95.28 -2236.35,17.16 -3201.69,-259.93 -2237.62,-642.28 -3725.69,-1673.01 -4516.69,-2890.71 -590.05,-908.35 -792.89,-1914.41 -630.85,-2940.28 158.83,-1005.54 667.69,-2021.44 1504.86,-2971.6 287.16,-325.92 613.98,-644.91 979.14,-953.85 -885.36,-1002.22 -1216.45,-1916.95 -1221.47,-2754.36 -5.49,-913.24 375.89,-1701.71 849.04,-2403.97 175.06,-259.86 460.18,-449.99 754.5,-534.01 185.96,-53.08 380.7,-66 560.94,-30.33 205.82,40.75 392.12,142.8 531.56,317.21 131.87,164.95 211.89,385.23 210.73,666.59 -1.59,384.38 1.43,594.03 47.4,707.43 32.84,81.03 132.77,157.19 329.99,289.61 20.4,13.7 41.68,21.45 62.51,23.11 20.98,1.67 43.39,-2.62 65.86,-12.97 22.94,-10.57 40.75,-24.59 52.65,-41.01 11.79,-16.27 19.5,-37.32 22.38,-62.12 207.03,-1778.4 1186.38,-2143.92 2351.52,-2578.78 239.21,-89.27 487.65,-182 750.07,-300.56 134.94,-60.96 276.43,-88.52 419.18,-82.85 142.96,5.66 281.85,44.32 411.39,115.73 130.34,71.88 237.41,168.68 318.21,286.11 81.08,117.81 133.42,252.69 154,400.22l115.85 830.25c3.42,24.57 10.62,44.48 21.05,59.01 11.39,15.86 28.16,29.58 49.73,40.36 21.57,10.78 42.61,15.97 62.13,15.57 17.58,-0.36 38.25,-6.89 61.12,-19.53 668.53,-369.42 1295.64,-498.42 2000.16,-431.64 665.92,63.12 1383.12,303.61 2268.97,681.57 141.74,53.63 246.6,186 257.33,347.09 62.01,892.66 -139.66,1652.7 -501.7,2283.5 -423.81,738.44 -1066.26,1292.94 -1760.1,1671.82 -22.69,12.39 -39.76,28.08 -50.39,45.75 -11.32,18.82 -17.56,41.92 -17.86,67.89 -0.3,25.92 5.32,49.06 16.1,68.01 10.1,17.74 27.14,33.98 50.37,47.4l711.12 410.86c154.08,89.02 274.57,214.12 354.72,362.75 79.87,148.14 118.02,317 107.78,494.15 -10.27,177.68 -68.01,341.73 -165.04,480.54 -96.56,138.13 -230.74,248.39 -394.36,319.18 -985.69,426.57 -1740.19,660.76 -2469.88,683.19 -745.43,22.92 -1434.91,-172.95 -2275.5,-607.64 -191.11,-98.83 -146.42,-290.17 -191.04,-231.57 -18.05,23.7 42.1,62.06 91.64,167.44l632.51 988.01c90.81,141.87 140.18,298.8 147.58,459.9 7.31,159.47 -27.37,319.11 -104.51,468.14 -77.82,150.34 -188.5,271.47 -322.92,357.54 -134.65,86.23 -291.37,136.18 -461.02,143.99 -1054.64,48.59 -2212.3,-332.68 -3133,-1140.76 -636.67,-558.78 -1160.64,-1319.88 -1458.75,-2281.25 -252.89,227.14 -483.74,459.38 -691.69,695.4 -737.46,836.99 -1182.84,1713.75 -1317.36,2565.36 -131.31,831.3 33.37,1647.02 512.11,2384.02 597.03,919.1 1680.57,1724.67 3286,2304.4 1955.29,397.17 3375.79,-778.91 4666.57,-1847.89 252.05,-208.74 499.36,-413.55 770.95,-622.34 1188.4,-913.59 2344.68,-1793.02 3479.63,-2612.2 1088.4,-785.59 2150.21,-1509.82 3190.02,-2145.41 191.82,-522.27 342.37,-1041.18 454.31,-1546.18 347.02,-1565.61 120.29,-2958.65 -513.89,-4114.51 -695.12,-1266.92 -1882.91,-2258.17 -3345.46,-2887.82l0.48 -1.11c-121.76,-52.46 -214.65,-164.46 -236.42,-305.14 -33.65,-217.46 115.35,-421.04 332.81,-454.69 283.68,-43.9 547.99,-75.91 793.14,-96.29 1804.39,-150.02 3280.92,198.5 4413.08,972.42 -31.13,-67.91 -62.16,-135.31 -93.07,-202.25 -10.08,-17.96 -18.87,-36.9 -26.21,-56.72 -115.3,-249.28 -228.83,-491.93 -339.75,-728.98 -505.47,-1080.26 -957.9,-2047.38 -1284.51,-3008.5zm5225.81 -30392.89c1837.27,-1815.03 3996.62,-3355.05 6469.47,-4517.67 103.07,-48.46 206.45,-96.16 310.14,-143.12 -237.5,-78.34 -473.53,-116.19 -704.22,-120.87 -550.17,-11.15 -1078,163.98 -1528.84,427.92 -131.59,77.02 -275.09,115.58 -420.17,115.61 -144.97,0.01 -288.48,-38.48 -420.15,-115.52 -132.38,-77.46 -236.4,-183.5 -307.02,-309.17 -70.36,-125.19 -106.69,-268.81 -104.03,-421.93l11.66 -670.32c0.13,-7.97 -1.39,-14.67 -4.32,-19.62 -2.23,-3.76 -7.21,-7.79 -14.71,-11.73 -6.91,-3.63 -13.27,-5.24 -18.58,-4.88 -4.41,0.3 -10.32,2.98 -17.31,7.98 -638.35,456.73 -1061.84,829.76 -1327.43,1242.25 -256.82,398.87 -377.35,859.23 -418.64,1502.97 -39.5,615.93 -250.38,871 -563.61,905.42 -271.52,29.84 -513.27,-159 -740.96,-427.45 -24.3,-28.72 -43.83,-59.87 -58.69,-92.5l-432.3 -872.45c-3.36,-6.8 -6.65,-11.27 -9.63,-13.25 -3.8,-2.53 -9.85,-4.15 -17.84,-4.65 -8.68,-0.55 -15.05,0.18 -18.8,2.03 -3.18,1.57 -6.99,5.6 -11.2,11.92 -387.3,581.76 -603.99,1275.79 -491.02,1980.78 82.22,513.07 341.06,1040.89 838.2,1548.25zm7200.78 -3976.31c-132.58,59.25 -263.85,119.42 -393.81,180.52 -2432.72,1143.75 -4551.66,2667.22 -6348.57,4465.2 248.67,802.84 621.49,1354.9 1051.11,1716.18 558.52,469.71 1224.25,624.4 1835.33,592.87 81.07,-4.18 167,-47.37 233.46,-109.46 34.61,-32.33 59.68,-65.4 70.37,-95.07 1.55,-4.29 2.84,-6.88 3.38,-8.13 -5.71,-14.22 -26.6,-33.27 -67.47,-57.61l-1.14 -0.7 -0.42 0.7c-350.63,-208.84 -544.8,-333.01 -683.24,-517.29 -158.05,-210.37 -190.64,-408.46 -207.88,-753.07 -7.32,-146.33 21.93,-285.69 83.94,-410.4l0.64 -1.25 -0.64 -0.32c62.13,-124.93 156.14,-232.78 278.19,-315.88 122.69,-83.52 258.34,-131.69 398.37,-143.75 138.27,-11.91 278.75,12.19 412.92,72.99 522.79,236.88 1091.74,247.34 1641.41,134.98 781.39,-159.73 1525.78,-564.09 2064.07,-936.41 5.42,-3.75 9.21,-7.55 11.22,-11.23 1.5,-2.75 2.52,-6.37 2.99,-10.78l-1513.7 -485.53c-187.28,-60.06 -304.93,-188.07 -372.89,-345.96 -59.64,-138.48 -73.61,-297.51 -63.03,-433.53 10.79,-138.71 53.54,-267.37 124.88,-380.65 70.99,-112.73 168.2,-206.48 288.31,-275.97 406.48,-235.25 670.99,-520.37 854.49,-903.37 127.21,-265.51 220.81,-583.93 297.71,-967.08zm-12530.14 13966.13c-45.53,129.36 -90.35,258.98 -133.85,389.05 -1772.49,5300.16 -1895.54,11167.02 -274.82,16463.73 42.11,-704.43 161.23,-1361.94 344.3,-1969.85 1.21,-22.62 4.34,-45.45 9.57,-68.29 1598.62,-6979.84 2510.31,-11021.1 908.23,-13721 -229.65,-387.02 -512.44,-749.95 -853.43,-1093.64zm-13669.68 -5152.52c-214.87,-49.18 -349.18,-263.25 -300,-478.12 49.18,-214.87 263.25,-349.18 478.12,-300 3125.11,718.49 5689.51,1383.16 7778.82,2070.49 687.15,-933.8 899.72,-1712.89 837.01,-2380.47 -66.55,-708.48 -450.67,-1323.14 -905.72,-1871.62 -77.93,-93.93 -202.37,-157.77 -329.61,-180.71 -70.4,-12.69 -136.6,-12.09 -189.44,3.97 -27.16,8.25 -48.54,20.9 -59.69,38.12 -19.39,29.94 -27.49,84.25 -18.67,168.96 50.68,486.56 70.84,761.19 -3.76,1015.37 -84.16,286.79 -246.56,454.45 -557.32,711.44 -125.85,104.09 -271.48,171.15 -427.29,199.42 -155.06,28.12 -314.16,16.54 -467.83,-36.44 -155.95,-53.77 -289.22,-142.84 -393.44,-259.99 -104.21,-117.17 -177.19,-260.13 -212.54,-421.66 -278.37,-1271.32 -1072.9,-1480.61 -2018.16,-1729.57 -263.3,-69.35 -536.77,-141.38 -827.09,-239.1 -22.22,-7.48 -43.1,-9.86 -61.87,-7.23 -17.77,2.49 -36.38,10.25 -55.1,23.15 -18.79,12.95 -32.83,27.86 -41.74,44.05 -9.19,16.71 -14.4,36.18 -15.23,57.73l-32.66 837.66c-6.08,155.91 -47.91,301.13 -122,429.59 -74.61,129.35 -179.31,238.55 -310.58,321.45 -132.34,83.57 -275.43,131.47 -422.34,143.09 -146.85,11.63 -295.34,-13.01 -438.54,-74.45 -545.58,-233.99 -1036.32,-286.07 -1567.16,-181.67 -510.65,100.42 -1071.19,343.75 -1752.19,708.11 58.4,613.23 265.43,1124.51 564.26,1542.47 402.32,562.7 974.14,962.26 1576.86,1217.2 158.83,67.16 289.64,169.6 385.57,298.13 96.57,129.38 157.87,283.95 176.98,454.5 18.76,167.42 -7.25,330.84 -73.33,479.67 -65.99,148.69 -170.24,277.87 -308.02,376.98l-666.72 479.58c-21.49,15.46 -36.97,34.52 -45.66,55.39 -8.86,21.27 -11.58,45.95 -7.41,72.22 4.23,26.66 14.45,49.42 29.36,66.78 14.56,16.95 34.9,30.11 59.75,38.03 926.97,295.65 1614.17,439.7 2229.32,397.24 596.21,-41.15 1149.18,-264.57 1824.69,-704.18 587.27,-382.2 954.3,-372.3 1185.14,-124.74 203.41,218.12 192.87,566.36 102.42,959.12 -8.48,37.05 -21.87,71.71 -39.31,103.44l-540.41 1064.48c-12.14,23.91 -17.59,47.28 -16.45,68.61 1.08,20.22 8.82,41.99 23.08,63.89 13.86,21.29 30.49,36.85 48.6,46.05 19.13,9.71 42.7,14.19 69.37,12.76 859.87,-46.15 1773.02,-454.43 2463.56,-1194.51 542.22,-581.1 945.82,-1368.09 1078.63,-2347.48 -2048.15,-669.74 -4581.11,-1323.76 -7684.26,-2037.2zm19856.9 -7763.74c42.76,-4.7 18.92,-11.28 -21.12,-27.8 -2.76,19.42 -2.24,30.37 21.12,27.8zm-4981.09 33980.47c-53.11,-761.7 -59.05,-1536.26 -24.39,-2301.82 66.03,-1458.53 526.89,-2948.01 1186.67,-4399.64 512.41,-1127.38 1143.39,-2231.07 1800.77,-3278.5 -138.77,61 -275.94,127.76 -411.11,200.21 -1875.63,1005.34 -3363.04,3104.72 -3386.56,6071.22 -10.32,1301.58 323.75,2464.43 834.62,3708.53zm3681.02 -11065.91c165.14,-212.3 394.06,-481.26 662.99,-797.23 1751.72,-2058.12 5339.01,-6272.96 3049.17,-9188.27 -29.18,114.31 -63.01,247.66 -100.49,395.39 -244.96,965.57 -625.85,2466.96 -1325.23,3918.81 -1087.22,2256.98 -2604.6,4622.06 -3612.48,6162.34 428.83,-213.63 874.08,-378.03 1326.04,-491.04zm1832 17448.91c347.53,-647.46 729.12,-1312.98 1123.07,-2000.05 1692.28,-2951.45 3615.66,-6305.97 3435.78,-9169.92 -7.02,-111.79 -15.86,-221.61 -26.12,-329.88 -1345.74,-1050.12 -2483.02,-1460.74 -3467.45,-1500.64 -1013.48,-41.06 -1886.69,313.58 -2663.82,764.3 -120.06,69.63 -206.81,185.84 -248.62,313.13 -27.07,82.43 -34.91,165.41 -20.12,238.53 11.99,59.3 41.46,114.7 90.9,158.64 77.71,69.08 207.01,115.61 399.14,121.7 638.49,20.27 996.62,40.45 1303.36,155.38 336.58,126.11 540.91,326.4 858.17,702.55 126.16,149.56 206.09,316.04 237.84,488.85 33.75,183.64 12.43,368.63 -65.96,543.75 -77.83,173.85 -200.71,313.63 -358.96,413.27 -147.93,93.15 -323.9,149 -518.82,161.88 -482.71,31.95 -946.3,232.01 -1355.21,523.18 -468.71,333.76 -862.51,784.59 -1133.6,1243.36 -257.6,435.94 -398.48,864.58 -377.32,1184.2 6.6,99.81 29.73,182.1 71.3,240.48 32.69,45.91 73.54,83.57 120.78,111.86 51.2,30.67 110.63,51.67 176.34,61.82l1142.09 176.55c177.76,27.49 340.88,87.44 482.71,175.71 147.04,91.51 271.84,212.36 367.45,358.22 101.42,154.72 158.11,319.87 169.57,487.54 11.93,174.92 -26.49,346.53 -115.8,506.62 -337.38,604.77 -445.54,1218.26 -338.76,1907.64 90.17,582.07 330.27,1224.1 712.06,1961.33zm5349.5 -11310.05c2.12,29.99 4.33,59.87 6.23,90.08 194.99,3104.62 -1791.29,6568.84 -3538.9,9616.8 -400.63,698.72 -788.57,1375.31 -1126.68,2005.25 711.74,-25.12 1332.18,-201.35 1860.12,-471.99 838.64,-429.93 1449.15,-1100.03 1823.27,-1780.22 93.69,-170.37 233.38,-302.99 406.72,-391.5 160.43,-81.94 346.57,-123.3 547.04,-118.3 194.7,4.87 380.05,51.83 544.42,134.96 167.79,84.87 314.57,207.17 428.45,360.82l636.19 858.49c40.28,54.35 94.06,97.76 156.13,127.68 64.68,31.18 137.75,47.51 213.77,46.38 64.63,-0.96 119.64,-15.15 161.48,-40.44 28.12,-17 48.98,-39.74 60.16,-66.74l0.57 -1.33 -0.57 -0.24c428.48,-1034 643.72,-1811.78 602.81,-2533.66 -40.31,-711.18 -334.84,-1404.21 -926.05,-2280.93 -219.4,-325.35 -312.96,-627.21 -314.58,-892.23 -1.57,-256.15 81.1,-473.9 222.03,-646.96 135.69,-166.62 321.84,-285.39 534.64,-351.31 266.13,-82.44 579.41,-81.24 882.88,15.83 8.37,2.65 16.58,5.58 24.64,8.73l0.36 -0.92 2334.24 913.03c96.77,37.84 188.64,66.52 269.94,75.49 55.27,6.1 106.1,2.31 150.07,-16.65 40.33,-17.39 68.39,-37.95 83.12,-60.15 12,-18.07 17.84,-42.32 16.71,-71.43 -3.04,-78 -9.78,-157.39 -20.14,-237.77 -117.28,-909.03 -684.42,-2013.58 -1654.42,-2881.14 -974.87,-871.93 -2356.03,-1494.8 -4097.09,-1426.88 -94.95,3.7 -190.81,9.44 -287.56,17.25zm-21425.47 24341.78c2596.04,-455.77 4606.79,-1527.34 6121.24,-2893.22 1141.51,-1029.52 2002.62,-2226.46 2620.78,-3453.13 -706.02,461.83 -1426.09,962.41 -2160.56,1492.54 -1113.25,803.52 -2267.31,1681.42 -3457.75,2596.58 -229.86,176.71 -486.99,389.65 -749.07,606.7 -727.65,602.61 -1492.55,1235.85 -2374.64,1650.53zm4588.42 -797.4c1222.65,-458.37 2426.7,-1078.5 3526.7,-1829.22 2201.24,-1502.27 3976.7,-3520.97 4630.51,-5798.71 224.7,-782.81 316.72,-1597.23 247.28,-2432.52 -20.8,-250.34 -47.61,-481.41 -80.35,-692.97 -250.22,-1617.1 -887.05,-2870.18 -1892.78,-3675.31 -891.17,-713.42 -2086.68,-1085.5 -3575.31,-1058.87 1061.05,668.7 1926.8,1545.83 2501.81,2593.83 723.77,1319.13 984.23,2901.26 592.01,4670.77 -499.82,2254.94 -1719.24,4769.75 -3882.67,6720.94 -612.16,552.1 -1299.61,1058.96 -2067.2,1502.06z"></path></g></svg></g><path fill="#ffffff" fill-rule="nonzero" d="M14.71 19.58L3.58 19.58L0.14 19.66Q0 19.22 0.14 18.79L0.14 18.79L2.14 18.53Q2.23 17.30 2.23 15.70L2.23 15.70L2.23 1.54L0.29 1.30Q0.19 0.94 0.29 0.41L0.29 0.41Q1.61 0.50 3.58 0.50L3.58 0.50Q5.33 0.50 6.89 0.43L6.89 0.43Q7.03 0.86 6.89 1.30L6.89 1.30L4.90 1.58Q4.80 2.50 4.80 4.39L4.80 4.39L4.80 18.36L12.72 18.36L13.85 14.02Q14.21 13.92 14.74 14.02L14.74 14.02L14.71 19.58ZM26.40 12.82L26.40 12.82L18.86 12.82Q18.65 18.94 22.54 18.94L22.54 18.94Q24.19 18.94 25.92 17.47L25.92 17.47Q26.28 17.69 26.47 18.22L26.47 18.22Q24.82 20.06 22.27 20.06L22.27 20.06Q16.42 20.06 16.42 13.18L16.42 13.18Q16.42 9.91 18.14 8.10Q19.87 6.29 22.18 6.29L22.18 6.29Q24.70 6.29 25.80 8.04Q26.90 9.79 26.90 12.60L26.90 12.60Q26.66 12.79 26.40 12.82ZM22.13 7.25L22.13 7.25Q20.88 7.25 20.00 8.54Q19.13 9.84 18.94 11.86L18.94 11.86L21.91 11.86Q23.69 11.86 24.46 11.64L24.46 11.64Q24.46 9.67 23.86 8.46Q23.26 7.25 22.13 7.25ZM35.09 0.41L35.09 0.41Q36.07 0.41 38.22 0.31Q40.37 0.22 42.12 0.22L42.12 0.22Q45.77 0.22 47.33 1.67Q48.89 3.12 48.89 5.71L48.89 5.71Q48.89 7.27 47.81 8.52Q46.73 9.77 44.98 10.39L44.98 10.39Q46.01 12.14 46.91 13.68Q47.81 15.22 48.22 15.96Q48.62 16.70 48.96 17.29Q49.30 17.88 49.45 18.10Q49.61 18.31 49.75 18.46L49.75 18.46L51.48 18.70Q51.58 19.06 51.48 19.58L51.48 19.58L47.40 19.58L43.78 13.01Q43.06 11.64 42.41 10.90L42.41 10.90L42.07 10.90Q40.85 10.90 39.60 10.75L39.60 10.75L39.60 18.53L41.78 18.77Q41.88 19.13 41.78 19.66L41.78 19.66Q40.27 19.58 38.38 19.58L38.38 19.58Q36.96 19.58 34.94 19.63L34.94 19.63Q34.80 19.20 34.94 18.77L34.94 18.77L36.94 18.48Q37.03 17.57 37.03 15.67L37.03 15.67L37.03 1.54L35.09 1.30Q34.99 0.94 35.09 0.41ZM39.60 4.39L39.60 4.39L39.60 9.77Q40.34 9.86 41.76 9.86L41.76 9.86Q42.98 9.86 43.86 9.47Q44.74 9.07 45.17 8.41Q45.60 7.75 45.79 7.06Q45.98 6.36 45.98 5.59L45.98 5.59Q45.98 3.53 44.95 2.38Q43.92 1.22 41.52 1.22L41.52 1.22Q40.63 1.22 39.74 1.39L39.74 1.39Q39.60 2.76 39.60 4.39ZM63.60 4.37L63.60 16.18Q63.60 17.78 63.67 18.43L63.67 18.43L65.57 18.67Q65.64 19.06 65.57 19.58L65.57 19.58Q63.82 19.66 61.92 19.92L61.92 19.92Q61.75 19.75 61.68 19.46L61.68 19.46L61.56 17.93Q60.72 18.91 59.47 19.50Q58.22 20.09 56.86 20.09L56.86 20.09Q54.77 20.09 53.40 18.35Q52.03 16.61 52.03 13.70L52.03 13.70Q52.03 10.34 53.82 8.32Q55.61 6.29 58.10 6.29L58.10 6.29Q60.07 6.29 61.32 7.22L61.32 7.22L61.32 4.01Q61.32 2.42 61.25 1.66L61.25 1.66L59.35 1.42Q59.26 1.06 59.35 0.50L59.35 0.50Q61.01 0.38 63.48 0L63.48 0Q63.70 0.24 63.72 0.48L63.72 0.48Q63.60 1.10 63.60 4.37L63.60 4.37ZM57.91 7.58L57.91 7.58Q56.35 7.58 55.42 9.23Q54.48 10.87 54.48 13.78L54.48 13.78Q54.48 16.15 55.36 17.40Q56.23 18.65 57.67 18.65L57.67 18.65Q58.54 18.65 59.57 18.11Q60.60 17.57 61.32 16.61L61.32 16.61L61.32 8.93Q60.14 7.58 57.91 7.58ZM67.22 0.41L67.22 0.41Q68.21 0.41 70.36 0.31Q72.50 0.22 74.26 0.22L74.26 0.22Q77.90 0.22 79.46 1.67Q81.02 3.12 81.02 5.71L81.02 5.71Q81.02 7.27 79.94 8.52Q78.86 9.77 77.11 10.39L77.11 10.39Q78.14 12.14 79.04 13.68Q79.94 15.22 80.35 15.96Q80.76 16.70 81.10 17.29Q81.43 17.88 81.59 18.10Q81.74 18.31 81.89 18.46L81.89 18.46L83.62 18.70Q83.71 19.06 83.62 19.58L83.62 19.58L79.54 19.58L75.91 13.01Q75.19 11.64 74.54 10.90L74.54 10.90L74.21 10.90Q72.98 10.90 71.74 10.75L71.74 10.75L71.74 18.53L73.92 18.77Q74.02 19.13 73.92 19.66L73.92 19.66Q72.41 19.58 70.51 19.58L70.51 19.58Q69.10 19.58 67.08 19.63L67.08 19.63Q66.94 19.20 67.08 18.77L67.08 18.77L69.07 18.48Q69.17 17.57 69.17 15.67L69.17 15.67L69.17 1.54L67.22 1.30Q67.13 0.94 67.22 0.41ZM71.74 4.39L71.74 4.39L71.74 9.77Q72.48 9.86 73.90 9.86L73.90 9.86Q75.12 9.86 76.00 9.47Q76.87 9.07 77.30 8.41Q77.74 7.75 77.93 7.06Q78.12 6.36 78.12 5.59L78.12 5.59Q78.12 3.53 77.09 2.38Q76.06 1.22 73.66 1.22L73.66 1.22Q72.77 1.22 71.88 1.39L71.88 1.39Q71.74 2.76 71.74 4.39Z" transform="translate(0, 52)"></path></svg>